
<svg width="30" height="30" viewBox="0 0 30 30" fill="none" xmlns="http://www.w3.org/2000/svg">
<path d="M29.7219 14.75C29.7219 22.7773 23.1594 29.2812 15.1906 29.2812C7.16328 29.2812 0.659375 22.7773 0.659375 14.75C0.659375 6.78125 7.16328 0.21875 15.1906 0.21875C23.1594 0.21875 29.7219 6.78125 29.7219 14.75ZM13.4914 22.4844L24.2727 11.7031C24.6242 11.3516 24.6242 10.707 24.2727 10.3555L22.925 9.06641C22.5734 8.65625 21.9875 8.65625 21.6359 9.06641L12.8469 17.8555L8.68672 13.7539C8.33516 13.3438 7.74922 13.3438 7.39766 13.7539L6.05 15.043C5.69844 15.3945 5.69844 16.0391 6.05 16.3906L12.1438 22.4844C12.4953 22.8359 13.1398 22.8359 13.4914 22.4844Z" fill="#84D321"/>
</svg>