
<svg width="30" height="30" viewBox="0 0 30 30" fill="none" xmlns="http://www.w3.org/2000/svg">
<path d="M15.1906 0.71875C23.218 0.71875 29.7219 7.22266 29.7219 15.25C29.7219 23.2773 23.218 29.7812 15.1906 29.7812C7.16328 29.7812 0.659375 23.2773 0.659375 15.25C0.659375 7.22266 7.16328 0.71875 15.1906 0.71875ZM15.1906 26.9688C21.6359 26.9688 26.9094 21.7539 26.9094 15.25C26.9094 8.80469 21.6359 3.53125 15.1906 3.53125C8.68672 3.53125 3.47188 8.80469 3.47188 15.25C3.47188 21.7539 8.68672 26.9688 15.1906 26.9688ZM21.1086 11.6172L17.4758 15.25L21.1086 18.9414C21.4016 19.1758 21.4016 19.6445 21.1086 19.9375L19.8195 21.2266C19.5266 21.5195 19.0578 21.5195 18.8234 21.2266L15.1906 17.5938L11.4992 21.2266C11.2648 21.5195 10.7961 21.5195 10.5031 21.2266L9.21406 19.9375C8.92109 19.6445 8.92109 19.1758 9.21406 18.9414L12.8469 15.25L9.21406 11.6172C8.92109 11.3828 8.92109 10.9141 9.21406 10.6211L10.5031 9.33203C10.7961 9.03906 11.2648 9.03906 11.4992 9.33203L15.1906 12.9648L18.8234 9.33203C19.0578 9.03906 19.5266 9.03906 19.8195 9.33203L21.1086 10.6211C21.4016 10.9141 21.4016 11.3828 21.1086 11.6172Z" fill="#EA1045"/>
</svg>